<?xml version="1.0" encoding="UTF-8" standalone="no"?>
<svg
   xmlns:dc="http://purl.org/dc/elements/1.1/"
   xmlns:cc="http://creativecommons.org/ns#"
   xmlns:rdf="http://www.w3.org/1999/02/22-rdf-syntax-ns#"
   xmlns:svg="http://www.w3.org/2000/svg"
   xmlns="http://www.w3.org/2000/svg"
   xmlns:sodipodi="http://sodipodi.sourceforge.net/DTD/sodipodi-0.dtd"
   xmlns:inkscape="http://www.inkscape.org/namespaces/inkscape"
   version="1.1"
   id="Layer_1"
   x="0px"
   y="0px"
   viewBox="-621.4816 -641.9268 1563.033 1641.2826"
   enable-background="new -621.4816 -641.9268 1563.033 1641.2826"
   xml:space="preserve"
   sodipodi:docname="logo.svg"
   inkscape:version="0.92.3 (2405546, 2018-03-11)"><metadata
   id="metadata15"><rdf:RDF><cc:Work
       rdf:about=""><dc:format>image/svg+xml</dc:format><dc:type
         rdf:resource="http://purl.org/dc/dcmitype/StillImage" /><dc:title /></cc:Work></rdf:RDF></metadata><defs
   id="defs13" /><sodipodi:namedview
   pagecolor="#7c8288f"
   bordercolor="#666666"
   borderopacity="1"
   objecttolerance="10"
   gridtolerance="10"
   guidetolerance="10"
   inkscape:pageopacity="0"
   inkscape:pageshadow="2"
   inkscape:window-width="1920"
   inkscape:window-height="986"
   id="namedview11"
   showgrid="false"
   inkscape:zoom="0.40669949"
   inkscape:cx="188.55685"
   inkscape:cy="874.7171"
   inkscape:window-x="-11"
   inkscape:window-y="-11"
   inkscape:window-maximized="1"
   inkscape:current-layer="_x23_2f2423ff" />
<g
   id="_x23_ffffffff">
</g>
<g
   id="_x23_2f2423ff">
	
	<g
   aria-label="s"
   transform="scale(1.0186908,0.98165213)"
   style="font-style:normal;font-variant:normal;font-weight:normal;font-stretch:normal;font-size:1179.18530273px;line-height:1.25;font-family:'Soul Of Holitter Alternative';-inkscape-font-specification:'Soul Of Holitter Alternative';font-variant-ligatures:normal;font-variant-caps:normal;font-variant-numeric:normal;font-feature-settings:normal;text-align:start;letter-spacing:0px;word-spacing:0px;writing-mode:lr-tb;text-anchor:start;fill:#7c8288F;fill-opacity:1;stroke:none;stroke-width:0.88350546"
   id="text831"><path
     d="m 232.05778,273.50568 52.39544,4.03042 q 23.03096,-17.849 -15.5459,-21.87941 10.9397,-13.81858 31.66757,-8.63662 83.48724,28.78871 137.61,71.97176 37.42532,29.36448 58.72896,65.06247 24.75828,42.60728 31.0918,86.94189 6.90929,44.3346 -1.72732,70.82021 8.06083,51.24389 64.48669,117.45791 -69.66866,-24.18251 -77.7295,-40.30418 l 6.90929,0.57577 q -27.06138,-31.0918 -25.33406,-37.42532 l -13.2428,-10.9397 13.81858,65.06247 21.87941,25.33406 q -32.81912,-12.09126 -62.1836,-44.33461 l -5.75774,15.5459 12.09126,36.27377 q -39.72841,-11.51548 -44.33461,-48.36502 l -3.45464,-0.57578 -40.30419,39.72841 23.03097,0.57578 19.57631,14.39435 Q 369.092,699.00272 316.12079,717.42749 186.57162,759.459 40.325009,718.57904 l -0.575774,0.57577 q -9.788159,-3.45464 -18.424771,-5.75774 -29.3644773,-9.78816 -58.728955,-21.87941 -0.575774,-1.15155 -1.727322,-1.15155 l 3.454644,-1.15155 q -9.788159,-5.18196 -17.273222,-10.36393 -65.638249,-20.15209 -172.156449,-14.97013 63.33515,-32.81912 86.94189,-30.51602 l -4.6062,4.60619 q 51.243896,-2.3031 59.304733,2.3031 l 17.848996,-4.03042 -82.911469,-21.87942 -42.60728,1.72733 q 31.66758,-15.5459 83.48724,-19.00055 l -13.2428,-10.93971 -49.51657,-9.21238 q 32.81912,-19.57632 80.032594,-4.60619 58.728956,31.66757 85.7903371,51.81966 48.9407959,35.69799 92.6996259,47.78925 13.818573,4.60619 29.940253,8.06084 89.24498,13.81858 169.27758,-12.09126 15.5459,-5.18196 39.15263,-14.97012 23.60674,-9.78816 58.15318,-36.84954 34.54645,-27.06139 53.54699,-76.00218 19.00055,-49.51657 16.69745,-82.3357 -1.72732,-32.81912 -23.60674,-61.60782 -21.30364,-28.7887 -62.75937,-54.69854 -47.78925,-29.94025 -91.54808,-30.51602 -43.75883,-0.57578 -84.06301,-3.45465 -39.72841,-3.45464 -112.275946,-26.48561 -89.2449814,-28.7887 -143.367744,-71.97175 -37.42532,-29.36448 -58.72896,-65.06248 -24.75828,-42.60728 -31.66757,-86.94188 -6.33351,-44.334604 2.3031,-70.820211 -8.06084,-51.243893 -64.4867,-117.457909 69.66866,24.18251 77.7295,40.304183 l -6.90929,-0.575774 q 27.06138,31.0918 25.33406,37.425315 l 13.2428,10.939707 -13.81857,-65.062471 -21.87942,-25.33406 q 32.81912,12.09126 62.183602,44.334605 l 5.75774,-15.545895 -12.091255,-36.27377 q 39.728411,11.51548 44.334603,48.365021 l 3.454645,0.575774 40.304185,-39.728415 -23.030963,-0.57577 -19.576318,-14.39435 q 46.6376995,-24.18251 99.608914,-42.60728 129.549167,-42.03151 275.795777,-1.15155 l 0.57578,-0.57578 q 9.78816,3.45465 18.42477,5.75774 29.36448,9.78816 58.72895,21.87942 0.57578,1.15155 1.72733,1.15155 l -3.45465,1.15155 q 9.78816,5.18196 17.27322,10.36393 65.63825,20.15209 172.15645,14.97013 -63.33515,32.81912 -86.94188,30.51602 l 4.60619,-4.60619 q -51.24389,2.30309 -59.30473,-2.3031 l -17.849,4.03042 82.91147,21.879415 42.60728,-1.727322 q -31.66757,15.5459 -83.48724,19.000545 l 13.24281,10.939707 49.51657,9.212385 q -32.81913,19.576319 -80.0326,4.606193 -50.09235,-25.909834 -85.79034,-51.819667 -48.94079,-35.697996 -92.69962,-47.789246 -13.81858,-4.60619 -29.94026,-8.06084 -89.24498,-13.81858 -169.277573,12.09126 -15.5459,5.18196 -39.152637,14.97012 -23.606737,9.78816 -58.1531815,36.849543 -34.5464445,27.061382 -53.5469885,76.577952 -19.000545,48.940796 -17.273223,81.759918 2.303097,32.819127 23.606738,61.607827 21.879414,28.7887 63.3351476,54.69854 43.1830554,27.06138 107.0939774,40.30418 40.87996,-30.51602 76.57795,-81.18414 5.18197,55.85008 -9.21238,69.66866 l -2.87887,-5.18197 q -23.60674,33.3949 -33.3949,36.27377 l -5.18197,13.81858 70.24444,-42.60728 19.00055,-27.06139 q 2.30309,27.63716 -21.30365,62.1836 l 20.1521,-3.45464 36.84954,-27.06138 q 5.75774,29.36448 -32.81912,51.24389 z"
     style="fill:#7c8288F;fill-opacity:1;stroke-width:0.88350546"
     id="path820" /></g>
<path
   fill="#2F2423"
   d="M468.3294-621.0854c25.5844,42.6063,7.8404,93.3624-4.7455,137.2066   c10.6774-0.3094,21.3547-0.7737,32.0321-0.7221c-13.2048,21.9737-37.2934,35.7459-47.1971,59.7829   c-7.0667,27.235-9.0783,56.3785-21.3031,81.9629c-18.5177,17.2798-46.0106,21.1484-63.4967,39.8209   c-12.5859,13.1533-26.7192,25.3781-36.0039,41.2651c-7.0151,11.8121,7.1183,21.9737,6.3446,33.889   c0.2063,11.2963-3.4044,26.7192-16.5061,28.9887c-9.6457,3.2496-18.5177-3.1465-27.1833-6.3961   c1.3411,12.2764-0.5159,24.3464-4.6424,35.9007c-10.1099,2.0117-20.2715,3.8686-30.433,5.674   c-1.4959,9.2331-3.7139,18.5177-3.4559,27.9572c3.2496,10.9352,10.8837,19.8588,16.1449,29.9172   c-24.0369-5.7255-46.1654-22.8506-54.4183-46.5264c-1.9601-13.8754,2.2696-27.5961,3.1465-41.3683   c-10.4195,2.1149-20.6842,4.9003-30.5362,8.872c3.0948,13.7207,18.4145,25.4296,11.3995,40.1303   c-7.2214,8.7689-19.0851,9.6973-29.1951,12.9469c-5.6739,18.724-3.1465,37.9123,6.035,54.9858   c-20.4778-6.4992-29.6077-27.5445-36.8807-45.959c-5.5192-23.16,1.2895-46.6812,5.3644-69.4802   c-7.1698,7.8404-12.4827,17.6924-21.4063,23.7274c-10.6258,0.5158-21.2515-2.9917-31.8257-1.0316   c-12.0185,19.0851-3.7139,41.3167,3.2497,60.505c-21.3032-13.308-38.7377-36.0554-35.0754-62.5167   c-1.8054-19.343,13.1016-33.3216,26.8739-44.2053c11.6058-8.7173,17.8988-22.8506,29.9689-30.8457   c13.1532,2.7854,25.7391,8.4594,39.305,9.0267c14.2365-5.8287,19.2915-26.8739,36.3133-26.2034   c10.3163,3.456,17.8472,12.0185,26.5645,18.1567c17.2282-17.5377,42.7094-23.3148,59.1123-41.8841   c10.2132-11.6574,23.418-23.1601,27.235-38.5313c-4.6938-20.4262-8.8204-40.9556-8.6141-62.0525   c-3.1465,1.0316-9.3878,3.0949-12.5342,4.1265c-1.8054,19.1883,4.0749,38.0671,2.837,57.1523   c-11.5543,14.3912-25.8939,26.5128-39.8725,38.4797c-13.7722,3.7139-28.5245,5.674-42.6062,2.6306   c-50.8593-12.07-103.524,8.3046-144.5827,37.6544c-27.235,16.3513-60.2471,5.7771-88.8232-0.7221   c3.6107-13.2564,8.253-26.2034,11.6058-39.5114c-46.1138,11.2448-93.3108,22.3348-135.1434,45.598   c1.8054-37.9639,33.7859-62.723,53.232-92.2276c8.4078-16.9703,15.0618-34.9722,18.982-53.5415   c-55.9142,15.8871-105.5871,55.2953-128.283,109.5074c-7.6341,20.581-19.2914,40.0787-20.9421,62.4135   c26.1002-44.5148,44.5664-98.3142,90.1127-127.4577c11.0384-6.8087,23.779-16.1966,37.3965-10.5226   c-33.9405,34.508-65.9211,73.1425-80.2091,120.2363c8.0983-0.4126,16.1966-0.8253,24.3464-1.2379   c0.6705,4.8487,2.0117,14.4944,2.6306,19.343c15.6808-11.6574,30.2783-25.7907,49.3119-31.7226   c23.779-7.7372,47.6096-15.526,72.214-20.2715c-2.4243,16.6608-23.4696,16.764-33.6827,27.2866   c-24.3464,22.7474-53.6962,39.5629-76.1342,64.4252c3.0433,3.7655,6.1382,7.4793,9.2846,11.1416   c-3.0949,5.2613-5.9834,10.6258-8.7172,16.0934c35.5396,4.2297,82.9429,1.2895,103.4207,36.7775   c-15.0102-1.1348-30.072-5.3129-45.0822-1.8569c-27.1318,4.9002-54.7795,8.3562-80.4155,18.9304   c2.6823,8.0983,5.3645,16.145,7.892,24.3465c-17.1766-0.3096-34.3533-0.2579-51.5299-0.3611   c-14.546,26.2549-2.3727,54.9858,9.8005,79.2806c-6.1382,2.1664-12.2764,4.4876-18.363,6.8603   c9.491,11.0384,24.4496,11.6058,37.2934,16.1966c-0.2579,5.7772-0.5158,11.6058-0.7221,17.4345   c-13.308,8.7173-26.4613,18.1567-35.2301,31.7742c-11.9153,19.2399-36.8807,20.1683-57.0491,21.4063   c11.9153-11.09,27.3382-19.7557,30.1236-37.3965c-16.4029,0.3611-33.1669,1.599-48.8992-3.9202   c13.1533-4.5907,27.3897-8.4078,35.7459-20.5295c-7.7372-2.9401-15.5775-5.6739-23.418-8.3045   c3.8171-5.4161,7.5825-10.8837,11.2964-16.3514c-11.2964-14.5975-12.1216-32.651-10.3679-50.2919   c-8.7172-3.9717-17.4345-7.892-25.997-12.1216c15.0618-8.4594,34.1985-16.2482,33.6827-36.8807   c-21.4579,9.0267-43.2252,17.8472-62.5683,30.9488c-6.2929-3.4559-12.5858-6.9634-18.982-10.2647   c-6.3961,5.3129-13.0501,10.2131-19.962,14.8038c1.7022,10.7289,3.5591,21.4579,5.3645,32.1352   c-7.9435,0.7738-15.9387,1.5475-23.8822,2.3728c5.674,9.4394,11.8122,18.6209,17.2282,28.1634   c-12.689,1.9601-25.5328,2.8886-38.3766,3.0434c3.4559,14.0302,12.9469,25.0169,20.942,36.6228   c-19.4462-5.2097-35.6428-17.125-49.9824-30.8457c-3.1981,8.7173-6.2929,17.5377-10.1616,25.997   c-7.634-15.3196-11.9669-31.9288-15.8871-48.4865c-19.601,7.3762-40.3367,16.9187-61.743,13.7207   c-14.6492-1.4443-21.0968-18.1051-22.6959-30.7426c4.1265-24.8107,16.0934-47.3002,23.7275-71.0792   c5.2097-16.4544,11.709-32.4447,20.581-47.3002c9.5426,0.4127,19.4978,4.5907,28.834,1.0832   c20.1683-13.7722,23.3148-39.7177,36.726-58.5965c8.9752-14.8554,22.7474-25.8423,37.3965-34.8175   c-14.0817,18.982-32.909,35.0754-41.2651,57.8228c-5.674,15.2165-11.8122,31.1036-25.2233,41.3167   c-9.4394,10.2131-24.1917,4.6939-36.1586,4.6423c-11.1416,23.2632-15.4229,49.0024-25.7907,72.6267   c-5.0034,16.4029-16.3513,35.6943-3.5075,51.4782c21.0452,9.2847,44.1537-1.2379,64.1673-8.6141   c-7.3762-14.5976-26.4097-25.0686-22.2316-43.4831c3.0949-17.383,6.2413-38.1703,23.3664-47.4034   c-3.0949,17.5377-14.4944,44.7727,9.2331,51.9425c4.2297-8.3046,8.4594-16.6608,12.7406-24.9654   c8.872,1.3411,17.744,2.837,26.616,4.0233c-0.9801-10.2131-4.3844-19.9104-7.9951-29.453   c15.8355-1.9085,31.671-4.9518,45.3401-13.5659c-6.035-10.9869-12.5343-21.819-16.5576-33.7343   c27.4413-20.0136,69.3254-33.6827,73.4004-72.6783c2.7338-27.8024,6.9635-55.3984,11.9153-82.8914   c-3.0949-65.0442,16.2481-128.9535,44.1537-187.0858c2.7854-7.1698,8.6141-11.9669,15.3197-15.3197   c-0.7737,10.7289-2.0633,21.5094-5.7771,31.7226c-12.6374,36.726-16.145,75.7215-21.2515,113.9433   c4.4876,26.3581,2.7854,53.6963,10.9868,79.3323c3.5591,14.9586-8.1499,30.6393,0.4643,44.9274   c19.4978-33.27,37.087-69.8413,38.2218-109.0947c7.0151,4.075,13.8238,8.4078,20.7357,12.689   c20.8905-31.5678,32.3415-68.0875,39.4082-105.0198c5.0549,12.2764,9.6973,24.7591,14.2364,37.2418   c25.5328-21.9221,48.3318-47.7644,64.2189-77.5269c3.0949-5.2613,6.8087-9.9552,11.2448-14.1333   c-1.5991,18.5693-5.5192,36.9839-4.5907,55.7595c13.8238-7.0667,24.9138-18.0535,36.3133-28.3698   c1.2379,9.5426,2.4759,19.1367,6.4477,28.0087c26.3065-24.5528,46.2685-55.5016,75.7215-76.7016   c19.0851-13.927,38.8408-27.0803,59.7313-38.1702c-17.9503,24.2948-37.6028,48.6413-46.1654,78.1974   c9.7489-4.0233,19.0336-9.0267,28.0603-14.3912c2.2696,6.654,4.436,13.3596,6.6024,20.1168   c24.037-11.9153,40.2851-34.1985,62.1556-49.2087c20.2715-14.1334,40.5946-28.5761,63.342-38.4797   c-11.1416,21.2-24.3464,41.4714-31.31,64.5799c8.6141-2.9402,17.1766-6.1898,25.8939-8.9236   c0.2063,27.9056-24.5527,46.836-29.0919,73.813c-15.7324,3.9202-34.1469,3.4044-46.3717,15.5776   c-9.6973,7.7372-15.9902,18.7241-19.2399,30.5878c23.8822-14.907,50.1371-24.6559,76.0311-35.1269   c11.0384-15.9387,14.9586-35.7459,26.9255-51.1172c31.671-36.4165,75.7215-66.6432,126.1166-63.7547   c35.7975,4.075,67.159-15.9387,97.4889-31.7742c7.7888,15.0102,7.9951,31.7226,7.6857,48.2287   c5.0034-3.8686,10.6773-7.4278,12.6375-13.8238C461.9334-554.1843,467.9684-587.7122,468.3294-621.0854 M-340.9831-128.4828   c19.1883-2.7338,31.5162-19.8588,37.4481-36.9839C-316.8946-154.1187-330.151-142.3582-340.9831-128.4828z"
   id="path3"
   style="fill:#7c8288F;fill-opacity:1" /><path
   d="M461.1596-432.7616c53.49-22.799,109.1463-45.598,168.3102-45.1337   c20.9937,0.3611,44.1537-0.4642,62.2588,11.709c-40.543,5.5192-81.8081,15.7324-114.4592,41.8326   c6.9634,5.5192,14.1849,10.7289,21.4579,15.9387c-3.5591,6.035-7.273,11.9669-10.7806,18.0019   c33.27,5.8803,68.7581,1.6506,100.1711,16.145c14.8555,6.2414,32.6512,10.9869,40.1304,26.8224   c-21.7158,2.4243-44.0504,2.6822-64.3735,11.6058c6.4477,8.9752,15.7839,14.9586,25.0685,20.6841   c-2.2696,6.912-4.4876,13.8754-6.6541,20.8389c21.6126,5.2097,44.8759,8.0983,62.8263,22.4895   c15.9901,12.7922,35.0237,23.3664,45.3916,41.7294c-12.0184,2.0117-24.0886,3.4043-36.0039,5.7255   c8.9753,8.0467,18.363,15.6292,27.5444,23.4695c-2.2694,5.8287-4.4875,11.709-6.7055,17.5377   c41.9874,15.8871,69.8928,52.4067,97.3857,85.9862c-13.669,6.3961-28.9373,5.0034-43.4831,6.1898   c3.8686,12.2763,11.1931,22.9022,20.0136,32.1868c-2.0634,4.9519-6.2929,9.3879-6.1382,15.0618   c9.491,25.997,33.9921,42.2451,47.3,65.9211c9.491,19.1883,16.2481,39.6145,23.0569,59.886   c-15.2681-1.1348-30.433-3.6108-45.7527-3.0434c7.892,17.4861,19.1367,33.0637,28.4729,49.7245   c-6.1382,5.1066-12.4826,9.8521-18.7241,14.8039c22.2832,50.1887,47.8677,102.4923,44.257,158.9223   c-16.2997-4.1265-31.8258-15.4229-49.1571-10.2647c3.0433,21.0968,8.4593,41.781,12.5859,62.723   c-6.9119,5.1581-13.8238,10.3163-20.6842,15.526c2.2696,63.2904,17.9504,131.5327-11.3478,191.1608   c-13.0502-9.3878-28.0088-33.9922-45.2886-18.3114c-8.2529,14.5459-4.4875,32.0836-5.7771,48.0739   c-6.5508-2.8369-13.1016-5.7771-19.6008-8.5626c-11.967,25.8423-9.1299,55.1922-18.3113,81.8597   c-8.15,30.3816-23.9339,58.3903-42.7096,83.4589c-3.4042-15.3713-4.3328-31.568-11.3478-45.8044   c-5.6223-2.7854-10.2132-1.6506-13.7206,3.4044c-7.8403,12.9468-11.3995,27.8539-16.7123,41.9357   c-5.2098-4.1266-10.2648-8.4078-15.3713-12.5859c-13.5659,16.7123-20.7358,37.1901-31.3099,55.7079   c-16.403,33.889-39.9241,63.6514-64.0126,92.2792c-5.5192,6.8086-13.4112,10.9352-20.942,15.0616   c-1.9601-22.7989,9.9551-45.8043,2.8885-67.9843c-15.3196-2.0118-17.6408,19.2914-30.2783,23.9854   c-7.3761-2.0116-13.308-7.2214-19.8588-10.8322c-20.0652,22.0768-44.2053,39.7694-65.56,60.5051   c-15.526,14.4944-34.0437,26.7192-55.5016,29.6593c1.8054-12.9984,5.055-25.7391,7.3761-38.6344   c-12.9985,6.3444-24.8106,14.6491-36.4165,23.2631c-4.3328-4.9001-8.4077-10.0068-13.1533-14.4944   c-17.7956-0.9284-34.0952,7.9952-51.2203,11.451c-16.8672,5.1581-34.1469-0.1031-50.8077-3.3011   c-0.5158,10.0068-1.4443,19.962-2.6822,29.9172c-14.9587-6.4477-24.5528-21.8705-41.0589-25.2234   c-14.0817-4.7454-29.0404-4.6423-43.6378-3.4559c4.0233,11.6058,13.6175,19.1883,23.0053,26.4097   c-28.6793,14.649-58.2354-8.2015-85.7283-16.0417c4.1781,25.2748,27.0803,44.9274,53.0257,43.4315c0,2.579,0,7.6855,0.0516,10.2646   c-39.3566,8.0983-78.3006-8.8719-110.4359-30.2783C2.8587,929.4523-2.3511,891.54-32.7841,881.4815   c2.1149,12.1733,4.6939,24.3464,8.8204,36.0554c-1.599,0.877-4.7971,2.6307-6.3961,3.5077   c-19.2914-24.9654-42.3483-50.0857-74.2773-57.7197c-23.8306-9.491-49.4666-10.0584-74.2257-14.8038   c-31.3615-12.9986-58.8544-34.4048-79.5901-61.1757c4.436,19.7042,17.6408,35.3849,27.235,52.6646   c-40.0788-2.1147-70.0992-32.8574-93.9298-62.0524c-13.7206-15.5259-15.6292-37.7061-29.2466-53.2319   c-3.456,11.812-6.6024,23.7274-9.5426,35.6428c-2.9402,0.5673-8.7688,1.7021-11.709,2.2695   c13.1533-30.4845,10.2647-67.3137-11.0384-93.3622c-19.0335-30.2784-60.6598-37.4998-73.7099-72.6268   c-3.817,10.5226-7.8404,20.9421-10.5226,31.8258c0,10.6774,4.436,20.8388,5.7771,31.4131   c-23.5211-25.0687-32.7026-59.7828-31.1552-93.5172c5.2613-22.799,18.1051-43.3284,20.9936-66.7979   c-25.636,4.0749-46.0106,23.6243-71.9045,25.6875c12.9985-14.4428,31.4647-23.4179,41.8325-40.2335   c12.7406-20.6841,18.8788-44.8242,22.9022-68.5517c1.2379-45.8559-18.6209-88.0495-37.4997-128.6441   c-13.2564,19.0851-17.5377,41.9357-22.5927,64.0641c-9.6973-26.0486-10.7289-56.8943,2.7854-81.8081   c19.0851-44.1021,58.1322-75.4636,99.3974-97.7983c17.2798-12.1217,38.0671-22.0253,47.9192-41.781   c-11.7606,1.2895-23.3148,3.7139-35.127,4.7455c11.2964-18.363,32.3932-27.1318,45.0306-44.36   c28.4214-37.8092,24.5012-90.2675,52.6646-128.0251c1.7538,1.0832,5.3129,3.198,7.0667,4.2813   c-17.5377,38.6861-2.3212,80.8281,2.7338,120.5974c5.7771,22.4895-2.8886,44.6694-8.6141,66.179   c2.7338-0.7738,8.1499-2.2696,10.8321-3.0434c4.8486-9.1815,9.5941-18.363,14.4944-27.4929   c14.546,14.4944,6.2414,37.3965,2.1664,54.7795c-12.9985,24.7591-40.1819,40.1819-49.7761,67.2106   c-6.8087,20.1683-5.1066,42.3483,0.9285,62.5167c5.3129,19.343,25.2233,30.2267,30.433,49.7245   c-13.7722-2.0632-27.3897-5.4161-41.2136-6.9119c4.5392,26.9255,35.6428,38.1702,59.2155,43.4315   c24.037,8.7688,49.8277-8.3046,73.5035,2.4243c20.9936,8.7173,42.3999,20.8905,53.4899,41.6778   c2.3212,16.3513,0.8769,33.0121,0.5674,49.4666c-14.3912-6.8087-25.1202-21.7674-42.3483-21.3547   c-16.3513,0.6706-38.944,0.9801-45.3401,19.4978c-12.0185,16.0418,4.1265,32.7543,17.6924,40.6978   c25.1717,14.9587,55.6048,8.0983,81.3955-1.3411c4.1781,25.1201-18.7756,37.706-34.4048,52.2004   c30.0204,0.8251,58.8028-11.2448,88.8748-11.9669c20.9421,3.9202,36.8292,19.6008,47.3517,37.3449   c-23.5727,1.2379-48.435-3.095-70.6149,7.0666c-11.2448,3.8171-15.7323,15.9387-22.9022,24.3981   c-7.3762,11.6058-21.9737,13.9271-33.4763,19.6009c12.1732,7.892,25.3265,14.8555,39.8209,17.2798   c8.3046,2.1149,18.5177,0.3095,24.9138,7.3246c-16.3513,9.7488-35.2301,12.1732-53.5931,15.5775   c16.764,12.4828,38.0155,16.0419,58.287,18.1052c27.6476-2.6307,53.9542-16.0419,82.1692-13.3596   c28.834,2.4243,59.0607,6.3444,84.4904,21.1483c1.5474,2.2181,4.6423,6.7057,6.1381,8.9236   c-11.1415-0.6706-21.9737-3.817-33.1668-4.0234c-19.601,6.8088-36.6744,18.9819-55.5532,27.4413   c30.4331,16.4029,65.1474,5.416,97.7468,5.3129c-3.9717,8.3561-8.3046,16.5059-12.2248,24.9138   c35.2817-0.6706,63.342-26.977,98.7785-26.3066c5.9318-1.599,20.8904-1.0316,12.5342,8.3047   c-13.5143,7.3761-32.5479,12.689-33.6827,31.0005c30.1752,1.7538,60.6082,2.6306,90.6802-0.7222   c18.2082-5.5707,35.5396-14.2365,54.6763-16.5576c0.619,4.1264,1.8569,12.3279,2.4243,16.4545   c41.1104-9.5426,81.5502-26.2549,112.396-55.8628c8.0467-9.9035,22.3348-3.3527,32.4447-9.0267   c21.7674-7.7372,34.2501-28.2665,45.1854-47.2486c5.3129-9.3362,17.6924-7.7372,26.7191-9.8519   c12.6374-19.4463,27.5445-37.2418,40.8009-56.2239c1.7021,8.3047,3.5075,16.6093,5.4676,24.9139   c12.3279-18.5177,13.7207-41.8326,25.8423-60.5567c12.1216-18.9819,16.8156-43.2767,35.1786-57.668   c1.3927,16.6093-0.0516,34.0953,6.1897,49.8277c1.9601,0.98,5.8803,2.9402,7.8405,3.8686   c2.8885-29.2982,1.599-58.7512-1.6507-87.9463c-8.0982,2.3212-15.8871,6.8088-24.5012,6.8603   c-17.0219-10.2646-26.8738-27.9055-37.6028-43.8958c0.6705,21.8705,18.3115,40.3366,13.9786,62.6714   c-14.7007,25.1718-44.7726,36.4681-59.3187,61.8977c-10.2131,17.0735-18.5177,35.9007-33.5795,49.5181   c-12.7406,10.2648-29.7625,10.5226-45.2369,12.2249c11.9153-21.7673,17.6408-46.0623,15.4229-70.8729   c-9.0783,5.3644-17.8988,13.9786-29.3499,11.7604c-15.2165-0.98-21.561-18.9819-19.343-32.0836   c13.8754-56.9459,14.7523-116.6256,4.436-174.2937c-13.4627-1.7538-26.7708-4.6938-39.2019-10.1616   c1.0833-14.2365,5.9319-28.6793,1.8054-42.8125c-4.1781-17.8988-13.0501-38.0156-1.5475-55.1922   c10.5742-2.7854,21.7674,0.9285,32.29-2.0632c18.2083-10.4195,24.2433-34.3532,17.3829-53.4384   c-9.8004-13.308-28.5761-14.1333-43.3283-17.8472c3.9717-20.942,24.759-27.5444,42.8125-31.8773   c-10.832-8.9236-24.3464-10.3163-37.7576-8.9752c5.8803-7.7372,11.09-17.8471,21.7674-19.3946   c15.3712-2.5791,30.9489,1.1348,46.3201,2.3211c-8.6656-15.2165-28.6793-14.2881-38.944-27.1834   c21.0452,0.2064,45.2885-6.4477,63.4967,7.3762c20.8905,16.0934,34.4565,40.6462,37.3965,66.8495   c-6.1381,3.6108-12.3795,7.1699-18.5177,10.8321c3.817,11.2963,10.4195,21.2,16.145,31.5678   c2.6306,16.5577-6.1382,31.8258-12.947,46.2685c-7.3246-6.035-14.5459-12.1732-22.0768-17.8988   c-2.6306,6.8603-4.6423,13.927-5.9834,21.1484c2.7854,12.5342,16.6092,21.1484,15.8354,34.6627   c-5.5192,14.8555-18.8788,26.3581-20.4262,42.7094c-1.7538,26.5128,2.1664,54.5216,16.2997,77.4753   c8.6141,9.9036,25.5329,8.253,33.7859,18.3114c-1.0832,14.5975-5.3129,28.7824-5.8803,43.4831   c25.1201-33.889,29.4014-78.4554,21.5094-118.8436c-4.2813-14.3397,3.8686-26.9255,10.3163-38.944   c9.6458-14.2881-0.0516-32.1353,6.6024-47.3518c5.9319-15.526,12.947-34.0953,28.8856-41.5746   c12.4827-5.7255,20.9421,7.8404,29.9688,13.927c38.1187,29.8657,72.8845,69.8413,79.8997,119.3594   c6.0865,22.438,10.1099,45.2369,13.9785,68.0876c15.4228-29.2467,2.7338-63.4452-2.3727-93.8783   c-5.4161-26.9771,15.4228-50.1371,13.1017-77.011c0.2062-30.5362-23.418-52.7678-33.5279-79.9512   c7.6855-0.3095,15.3712-0.6706,23.0569-1.0316c-8.15-15.6808-16.3514-31.3615-23.4696-47.6097   c8.7172,0.1032,17.4345,0.3611,26.1518,0.5159c-18.8272-27.235-38.944-55.8111-43.0189-89.6485   c-2.7339-26.1002-9.1299-53.0257-26.0486-73.813c-15.3713-20.8389-42.9673-32.1868-49.9824-58.8544   c15.8354-0.2578,41.0072,11.5543,49.415-7.3245c-25.3781-0.7222-51.5814-10.4195-66.5916-31.8258   c-1.6506-7.8404-0.1547-15.8871,0.0516-23.779c-15.5776-4.8486-32.7542-8.0983-45.2885-19.343   c-4.9002-8.7688,0.0516-18.982,0.8253-28.215c-19.1367-0.619-38.8408-0.2063-57.049-6.9635   c-21.9221-10.6774-39.5629-28.2666-61.7945-38.3766c-11.0384-5.7771-23.5728-9.3878-32.8574-18.1051   c-2.3211-7.0151-2.4243-15.9902,3.8686-21.0452c17.9504-17.2282,44.4632-23.5211,59.6281-44.0506   c9.3363-13.7722,16.5577-28.9887,22.3347-44.5663C452.2876-384.4298,445.5305-412.5417,461.1596-432.7616z"
   id="path5"
   fill="#2F2423"
   style="fill:#7c8288F;fill-opacity:1" />
	<path
   fill="#2F2423"
   d="M-524.2003,58.9125c28.8856,8.0983,58.5965,2.2696,85.522-9.2846   c-9.491,24.2948-22.5411,48.6412-44.1537,64.2704c-21.3547,13.5143-47.8676,15.3712-68.8096,29.7625   c-17.125,7.9951-25.7391,25.1718-37.2418,39.0987c0.5158-36.9323,20.4778-70.8214,47.9191-94.4456   c-21.0968,12.4311-42.7094,24.398-61.0724,40.8525c10.7805-18.363,14.7523-41.5231,32.5479-54.9858   C-556.4903,64.6897-541.377,51.9491-524.2003,58.9125z"
   id="path7"
   style="fill:#7c8288F;fill-opacity:1" />
<text
   xml:space="preserve"
   style="font-style:normal;font-variant:normal;font-weight:normal;font-stretch:normal;font-size:40px;line-height:1.25;font-family:'Soul Of Holitter Alternative';-inkscape-font-specification:'Soul Of Holitter Alternative';font-variant-ligatures:normal;font-variant-caps:normal;font-variant-numeric:normal;font-feature-settings:normal;text-align:start;letter-spacing:0px;word-spacing:0px;writing-mode:lr-tb;text-anchor:start;fill:#000000;fill-opacity:1;stroke:none"
   x="91.575592"
   y="249.41634"
   id="text827"><tspan
     sodipodi:role="line"
     id="tspan825"
     x="91.575592"
     y="285.4465" /></text>






</g>
</svg>